<svg xmlns="http://www.w3.org/2000/svg" viewBox="0 0 440.99 109.04"><defs><style>.cls-1{fill:#848484;}</style></defs><title>Asset 1</title><g id="Layer_2" data-name="Layer 2"><g id="Layer_1-2" data-name="Layer 1"><path class="cls-1" d="M54.52,0A54.54,54.54,0,0,0,2.36,70.4q1.48-2.12,2.93-4.25Q11,57.76,16.49,49.22l2.69-4.29q1.36-2.14,2.65-4.31c1.77-2.87,3.46-5.79,5.14-8.7.84-1.45,1.63-2.93,2.45-4.39S31,24.59,31.81,23.1s1.58-3,2.29-4.45l2.17-4.49.15-.32A5,5,0,0,1,43,11.57a5.35,5.35,0,0,1,2.82,5h0c0,2.59-.51,5.28-.68,7.93s-.35,5.33-.45,8c-.21,5.33-.34,10.65-.27,15.95s.29,10.56.85,15.7a74.15,74.15,0,0,0,1.17,7.5,26.76,26.76,0,0,0,2.11,6.44,5.56,5.56,0,0,0,1.22,1.71c.32.22.1.11.26.13s.13,0,.2,0l.17-.06.09,0h0l.3-.14a0,0,0,0,0,0,0,4.55,4.55,0,0,0,.42-.28,14.91,14.91,0,0,0,2.18-2.07,51.38,51.38,0,0,0,4.4-5.9c1.4-2.14,2.73-4.39,4-6.67,2.58-4.57,5-9.31,7.28-14.11q1.72-3.6,3.36-7.25c1.09-2.42,2.17-4.89,3.18-7.29A4.91,4.91,0,0,1,85,37.17v0c0,.63.1,1.44.17,2.17l.25,2.26c.18,1.51.4,3,.65,4.52.51,3,1.14,6,1.95,8.94a60.84,60.84,0,0,0,3,8.6,34,34,0,0,0,4.6,7.76l0,0a1.31,1.31,0,0,1-1.86,1.82,37.4,37.4,0,0,1-6.59-7.44,66.45,66.45,0,0,1-5-8.55c-1-2-1.83-4-2.65-6-.55,1.18-1.08,2.37-1.65,3.55-2.37,4.94-4.85,9.85-7.57,14.69C69,72,67.58,74.36,66,76.75a60.11,60.11,0,0,1-5.29,7.08A24.35,24.35,0,0,1,57,87.29c-.38.28-.82.56-1.27.83l-.92.48-.52.23-.06,0-.29.12-.2.07-.39.13c-.27.08-.52.17-.8.24a11.48,11.48,0,0,1-1.8.27,10.14,10.14,0,0,1-3.93-.49,10.6,10.6,0,0,1-3.29-1.87,14.92,14.92,0,0,1-3.65-4.7,36,36,0,0,1-3-8.9,82.55,82.55,0,0,1-1.34-8.51c-.62-5.61-.85-11.14-.92-16.65,0-2.64,0-5.27,0-7.9-1,1.88-2,3.75-3,5.6-.82,1.52-1.65,3-2.5,4.55l-2.54,4.52q-5.13,9-10.56,17.81-3.51,5.7-7.11,11.31A54.52,54.52,0,1,0,54.52,0Z"/><path class="cls-1" d="M156.16,74.23V38h-.88l-11.6,36.25h-2.86L129.24,38h-.89V74.23h-4.79V34.17h8.55L142.26,66,152.4,34.17h8.55V74.23Z"/><path class="cls-1" d="M168,39.36V34.17h5.23v5.19Zm.08,34.86V43.34h5.07V74.23Z"/><path class="cls-1" d="M204.14,64.13c0,6-2.3,10.61-12.28,10.61-12.59,0-13.31-7.15-13.31-16s.72-16,13.31-16c10,0,12.28,4.58,12.28,10.62h-4.75c0-4.88-1.7-7.28-7.53-7.28-7.8,0-8.24,4.22-8.24,12.63s.44,12.63,8.24,12.63c5.83,0,7.51-2.4,7.53-7.29Z"/><path class="cls-1" d="M214,46.56c2.4-1.51,5.47-3.5,8.43-3.64.62-.06,1.21-.08,1.82-.08.77,0,1.54,0,2.37.1l-.35,3.65c-.79-.06-1.5-.1-2.19-.1a13.6,13.6,0,0,0-1.86.12c-2.69.1-5.59,2.07-7.71,3.35V74.23H209.4V43.33h4Z"/><path class="cls-1" d="M255.17,58.79c0,8.8-.73,16-13.48,16s-13.48-7.15-13.48-16,.73-16,13.48-16S255.17,50,255.17,58.79Zm-21.88,0c0,8.45.45,12.62,8.38,12.62s8.43-4.1,8.43-12.62-.45-12.63-8.41-12.63S233.28,50.33,233.28,58.79Z"/><path class="cls-1" d="M264.52,81.39c1.86.17,4.44.34,7.2.34,7.82,0,8.82-2.06,8.85-10.35-2.3,1.28-5.52,2.82-8.78,2.86-11.31.23-11.95-5.88-11.95-15.46s.62-16,11.55-16c3.74,0,7.11,1.7,9.75,3.42l.45-2.84h4V70.79c0,11.1-2.5,14.48-12.7,14.48a63.7,63.7,0,0,1-8.93-.69ZM280.57,49c-2.2-1.37-5-2.83-7.66-2.83-7.52,0-8,4.19-8,12.62,0,8.24.46,12.09,8,12.09,2.67,0,5.56-1.46,7.66-2.63Z"/><path class="cls-1" d="M313.3,74.23l-.45-2.83c-2.54,1.64-5.77,3.41-9.36,3.41-11.31.17-11.95-6.21-11.95-16s.63-16,11.79-16c3.66,0,7,1.74,9.52,3.24l.45-2.68h4v30.9Zm-1-25.43c-2.1-1.17-5-2.63-7.66-2.63-7.52,0-8,4.2-8,12.63s.47,12.62,8,12.62c2.68,0,5.46-1.46,7.66-2.83Z"/><path class="cls-1" d="M328,46c2.3-1.43,5.37-3.11,8.69-3.21,5.21-.15,7.85,1.18,9.2,3.44,2.35-1.49,5.58-3.35,9.07-3.44,10.65-.34,11.25,5.1,11.25,12.63V74.23h-5.08V55.7c0-6.42-.43-9.55-7.29-9.55-2.45,0-5.11,1.49-7.17,2.75a24.88,24.88,0,0,1,.64,6.79V74.23H342.9V55.7c0-6.42-.42-9.55-7.29-9.55-2.42,0-5,1.46-7,2.64V74.23h-5.07V43.33h4Z"/><path class="cls-1" d="M372.64,39.36V34.17h5.23v5.19Zm.08,34.86V43.34h5.07V74.23Z"/><path class="cls-1" d="M388.56,46c2.46-1.44,5.8-3.14,9.37-3.23,11.3-.34,11.95,5.1,11.95,12.63V74.23h-5.08V55.7c0-6.42-.46-9.55-8-9.55-2.67,0-5.56,1.47-7.66,2.65V74.23h-5.07V43.33h4Z"/><path class="cls-1" d="M419.86,81.39c1.86.17,4.44.34,7.2.34,7.82,0,8.83-2.06,8.85-10.35-2.3,1.28-5.52,2.82-8.78,2.86-11.31.23-11.95-5.88-11.95-15.46s.62-16,11.55-16c3.74,0,7.11,1.7,9.75,3.42l.45-2.84h4V70.79c0,11.1-2.5,14.48-12.7,14.48a63.67,63.67,0,0,1-8.93-.69ZM435.92,49c-2.2-1.37-5-2.83-7.66-2.83-7.52,0-8,4.19-8,12.62,0,8.24.46,12.09,8,12.09,2.67,0,5.56-1.46,7.66-2.63Z"/></g></g></svg>